<svg xmlns="http://www.w3.org/2000/svg" xmlns:xlink="http://www.w3.org/1999/xlink" width="838.64" height="288" viewBox="0 0 838.64 288"><defs><clipPath id="clip-path"><circle cx="144" cy="144" r="141.5" fill="none" stroke="#e6e6e6" stroke-miterlimit="10" stroke-width="5"/></clipPath></defs><g id="Layer_2" data-name="Layer 2"><g id="Layer_1-2" data-name="Layer 1"><path d="M404.74,108.42v16.17H337.31V37.51h65.81V53.68H357.34V72.59h40.43V88.27H357.34v20.15Z" fill="#e6e6e6"/><path d="M422,37.51h20.15v70.66h43.66v16.42H422Z" fill="#e6e6e6"/><path d="M565.83,108.42v16.17H498.41V37.51h65.81V53.68H518.43V72.59h40.44V88.27H518.43v20.15Z" fill="#e6e6e6"/><path d="M665.6,37.51l-37.69,87.08H608L570.43,37.51H592.2l26.5,62.2,26.87-62.2Z" fill="#e6e6e6"/><path d="M741.48,108.42v16.17H674.06V37.51h65.81V53.68H694.09V72.59h40.43V88.27H694.09v20.15Z" fill="#e6e6e6"/><path d="M838.64,37.51v87.08H822.09L778.68,71.72v52.87H758.77V37.51h16.67l43.29,52.87V37.51Z" fill="#e6e6e6"/><path d="M348.78,247.69q-9.63-2.81-15.48-7.28l6.84-15.18a46.38,46.38,0,0,0,13.31,6.6,49.94,49.94,0,0,0,15.43,2.49q8.58,0,12.68-2.56c2.74-1.69,4.11-4,4.11-6.78a6.48,6.48,0,0,0-2.43-5.16,18.12,18.12,0,0,0-6.22-3.29q-3.79-1.25-10.26-2.74a140.76,140.76,0,0,1-16.29-4.73,26.49,26.49,0,0,1-10.89-7.59Q335,196.25,335,187.54a24.31,24.31,0,0,1,4.1-13.75q4.11-6.15,12.38-9.76t20.22-3.61a67.28,67.28,0,0,1,16.29,2A48.58,48.58,0,0,1,402,168.13l-6.22,15.31q-12.08-6.85-24.14-6.85-8.46,0-12.5,2.74a8.33,8.33,0,0,0-4,7.21q0,4.49,4.66,6.66A73.36,73.36,0,0,0,374,197.49a142,142,0,0,1,16.29,4.73,27.06,27.06,0,0,1,10.89,7.46q4.53,5.12,4.54,13.81a23.74,23.74,0,0,1-4.17,13.62q-4.17,6.16-12.5,9.77t-20.28,3.61A71.53,71.53,0,0,1,348.78,247.69Z" fill="#e6e6e6"/><path d="M438.35,244.7a43.25,43.25,0,0,1-16.92-16,46.79,46.79,0,0,1,0-46.41,43.28,43.28,0,0,1,16.92-16.05A54,54,0,0,1,483,164.4a40.92,40.92,0,0,1,15.36,11.45l-12.93,11.94q-8.83-10.2-21.9-10.2a29.11,29.11,0,0,0-14.43,3.54,25.28,25.28,0,0,0-9.89,9.89,31.18,31.18,0,0,0,0,28.86,25.22,25.22,0,0,0,9.89,9.89,29,29,0,0,0,14.43,3.55q13.06,0,21.9-10.32l12.93,11.94A40.46,40.46,0,0,1,483,246.51a51.28,51.28,0,0,1-20.53,4A50,50,0,0,1,438.35,244.7Z" fill="#e6e6e6"/><path d="M529,244.64a43.45,43.45,0,0,1-17-16.11,46.36,46.36,0,0,1,0-46.15,43.45,43.45,0,0,1,17-16.11,53.85,53.85,0,0,1,48.82,0,44.4,44.4,0,0,1,0,78.37,53.85,53.85,0,0,1-48.82,0Zm38.38-14.87a25.42,25.42,0,0,0,9.76-9.89,31.1,31.1,0,0,0,0-28.86,25.49,25.49,0,0,0-9.76-9.89,29.2,29.2,0,0,0-27.87,0,25.52,25.52,0,0,0-9.77,9.89,31.18,31.18,0,0,0,0,28.86,25.45,25.45,0,0,0,9.77,9.89,29.12,29.12,0,0,0,27.87,0Z" fill="#e6e6e6"/><path d="M627.19,240.16q-10.4-10.32-10.39-29.48V161.91H637v48q0,23.38,19.41,23.39,9.45,0,14.43-5.66t5-17.73v-48h19.9v48.77q0,19.15-10.39,29.48t-29,10.33Q637.58,250.49,627.19,240.16Z" fill="#e6e6e6"/><path d="M733.36,178.33H705.5V161.91h75.88v16.42H753.52V249H733.36Z" fill="#e6e6e6"/><g clip-path="url(#clip-path)"><image width="3463" height="3463" transform="translate(2.64 2.64) scale(0.08)" xlink:href="logo%20pramuka%20sman11.png"/></g><circle cx="144" cy="144" r="141.5" fill="none" stroke="#e6e6e6" stroke-miterlimit="10" stroke-width="5"/></g></g></svg>