<?xml version="1.0" encoding="UTF-8"?>
<!DOCTYPE svg PUBLIC "-//W3C//DTD SVG 1.1//EN" "http://www.w3.org/Graphics/SVG/1.1/DTD/svg11.dtd">
<!-- Creator: CorelDRAW 2021 (64-Bit) -->
<svg xmlns="http://www.w3.org/2000/svg" xml:space="preserve" width="5.90551in" height="5.90551in" version="1.1" style="shape-rendering:geometricPrecision; text-rendering:geometricPrecision; image-rendering:optimizeQuality; fill-rule:evenodd; clip-rule:evenodd"
viewBox="0 0 5905.51 5905.51"
 xmlns:xlink="http://www.w3.org/1999/xlink"
 xmlns:xodm="http://www.corel.com/coreldraw/odm/2003">
 <defs>
  <style type="text/css">
   <![CDATA[
    .fil0 {fill:#622599}
    .fil1 {fill:white}
   ]]>
  </style>
 </defs>
 <g id="Layer_x0020_1">
  <metadata id="CorelCorpID_0Corel-Layer"/>
  <g id="_2004384781680">
   <circle class="fil0" cx="2952.18" cy="2953.33" r="2341.92"/>
   <path class="fil1" d="M2941.81 1075.47c1042.44,0 1887.5,843.02 1887.5,1882.94 0,780.52 -476.13,1450.02 -1154.39,1735.49 -152.76,64.3 -262.96,97 -433.8,103.11 -161.38,5.77 -275.64,-4.25 -275.64,-4.25l102.44 -60.56c31.77,-18.78 61.8,-31.55 100.14,-31.46 130.74,11.97 258.47,-14.11 379.58,-61.91 682.19,-269.21 1184.03,-906.45 1184.03,-1680.42 0,-986.14 -801.34,-1785.55 -1789.87,-1785.55 -988.52,0 -1789.86,799.41 -1789.86,1785.55 0,794.76 520.53,1468.18 1240.02,1699.63 7.78,2.5 23.54,7.89 31.37,10.29 -16.2,28.02 -28.52,58.54 -36.25,90.84 -5.94,-1.85 -19.84,-6.67 -25.76,-8.57 -758.41,-244.27 -1307.02,-954.31 -1307.02,-1792.19 0,-1039.93 845.06,-1882.94 1887.5,-1882.94z"/>
   <path class="fil1" d="M3512.08 3336.22c0,0 23.87,31.43 23.87,68.83 0,37.41 -23.87,68.84 -23.87,68.84 -380.32,0 -760.63,0 -1140.96,0 0,0 -23.87,-31.43 -23.87,-68.84 0,-37.41 23.87,-68.83 23.87,-68.83l142.22 0c-8.21,-44.08 -48.5,-209.14 -200.87,-282.87 -101.51,-49.12 -237.83,-30.33 -310.98,61.72 -29.12,36.65 -88.02,145.03 -14.62,304.05 -194.58,-15.51 -370.28,-178.83 -409.24,-369 -104.83,-511.28 593.71,-804.7 907.84,-282.81 0,0 156.87,212.57 163.57,568.91l109.65 0c2.22,-120.08 -29.75,-320.61 -103.24,-486.88 -42.61,-117.07 -156.64,-316.15 -189.17,-494.64 -64.53,-354.09 233.43,-710.22 475.32,-920.98 241.89,210.76 539.86,566.89 475.32,920.98 -32.53,178.49 -146.56,377.57 -189.17,494.64 -73.49,166.27 -105.47,366.8 -103.24,486.88l109.65 0c6.7,-356.33 163.57,-568.91 163.57,-568.91 314.13,-521.9 1012.66,-228.48 907.83,282.81 -38.96,190.17 -214.65,353.49 -409.24,369 73.39,-159.02 14.5,-267.39 -14.62,-304.05 -73.15,-92.06 -209.46,-110.84 -310.98,-61.72 -152.37,73.72 -192.66,238.79 -200.87,282.87l142.22 0zm-570.48 1039.21c0,0 -233.23,-117.03 -379.52,-299.27 0,0 170.11,-196.98 192.22,-511.36l138.44 0c0,0 7.74,356.45 48.86,538.94 41.12,-182.5 48.86,-538.94 48.86,-538.94l138.44 0c22.11,314.38 192.22,511.36 192.22,511.36 -146.29,182.24 -379.52,299.27 -379.52,299.27zm-301.41 -808.76l-135.33 0c0,0 -24.55,100.81 -103.83,153.75 -63.91,42.68 -157.02,61.52 -263.44,-9.41 -77.61,227.18 230.86,369.39 404.63,139.74 53.06,-70.06 90.89,-199.85 97.96,-284.07zm602.81 0l135.33 0c0,0 24.55,100.81 103.82,153.75 63.91,42.68 157.02,61.52 263.44,-9.41 77.6,227.18 -230.87,369.39 -404.63,139.74 -53.06,-70.06 -90.89,-199.85 -97.96,-284.07zm-354.8 -230.45l106.79 0c0,0 5.7,-214.6 -0.06,-717.66 -5.76,-503.06 -53.34,-765.28 -53.34,-765.28 0,0 -47.58,262.22 -53.34,765.28 -5.76,503.06 -0.06,717.66 -0.06,717.66zm-916.12 -588.99l-99.52 -99.52 19.65 136.29 -124.88 67.19 142 22.19 20.28 137.56 65.93 -125.52 135.66 22.19 -97.62 -100.15 63.39 -123.61 -124.88 63.39zm1939.03 0l99.52 -99.52 -19.65 136.29 124.88 67.19 -142 22.19 -20.28 137.56 -65.93 -125.52 -135.66 22.19 97.62 -100.15 -63.39 -123.61 124.88 63.39z"/>
   <path class="fil1" d="M2538.96 4827.06c0,-101.09 81.94,-183.03 183.03,-183.03 0,0 54.81,-0 112.18,-24.83 18.23,-7.89 35.96,-16.5 51.67,-24.58 -46.31,-32.71 -102.84,-51.93 -163.85,-51.93 -157.05,0 -284.36,127.31 -284.36,284.36 0,157.05 127.31,284.36 284.36,284.36 61.02,0 117.56,-19.22 163.87,-51.94 -15.72,-8.08 -33.45,-16.7 -51.7,-24.59 -51.84,-22.43 -101.6,-24.6 -110.7,-24.8 -0.49,0 -0.98,0 -1.48,0 -101.09,0 -183.03,-81.94 -183.03,-183.03z"/>
   <path class="fil1" d="M2597.46 4796.22c0,0 8.46,-83.02 121.64,-99.03 113.19,-16.01 125.75,-19.05 204.71,-62.12 78.96,-43.07 142.41,-80.45 195.32,-90.53 52.91,-10.08 170.48,2.52 246.07,89.02 0,0 -81.46,14.28 -209.11,10.08 0,0 -38.15,-2.55 -92.13,27.3 -53.98,29.85 -130.39,91.12 -262.89,115.87 -132.5,24.76 -203.61,9.41 -203.61,9.41z"/>
   <path class="fil1" d="M2597.46 4859.1c0,0 8.46,83.02 121.64,99.03 113.19,16.01 125.75,19.05 204.71,62.12 78.96,43.07 142.41,80.46 195.32,90.54 52.91,10.08 170.48,-2.52 246.07,-89.02 0,0 -81.46,-14.28 -209.11,-10.08 0,0 -38.15,2.54 -92.13,-27.3 -53.98,-29.85 -130.39,-91.12 -262.89,-115.88 -132.5,-24.75 -203.61,-9.4 -203.61,-9.4z"/>
   <path class="fil1" d="M2387.52 4891.5l-193.35 72.34c0,0 -24.1,7.3 -16.8,36.52 7.3,29.22 27.75,63.55 48.2,60.63 20.34,-2.91 64.55,-38.34 197.24,-71.06 -16.54,-30.31 -28.59,-63.42 -35.3,-98.43z"/>
   <path class="fil1" d="M2965.82 4865.45l108.2 62.79c0,0 43.48,31.89 96.61,29.95 53.13,-1.94 194.19,-6.77 322.68,40.57 128.49,47.34 146.84,57 146.84,57 0,0 18.54,8.91 27.93,0.08 9.39,-8.84 32.04,-41.43 34.8,-70.15 0,0 1.1,-14.91 -10.5,-19.88 -11.59,-4.97 -162.28,-73.33 -295.86,-92.65 -133.58,-19.32 -317.56,-20.16 -430.7,-7.71z"/>
  </g>
 </g>
</svg>
